<svg xmlns="http://www.w3.org/2000/svg" viewBox="160 250 360 420" role="img" aria-label="GorPliaj Admin">
  <rect x="160" y="250" width="360" height="420" rx="88" fill="#5c3a21"/>
  <g transform="translate(0 1121.3333) scale(1 -1)">
    <path
      fill="#f5ede0"
      d="m 338.9063,559.8978 c -3.5748,0 -6.4744,2.8998 -6.4744,6.4709 0,3.5773 2.8996,6.4738 6.4744,6.4738 3.5736,0 6.4734,-2.8965 6.4734,-6.4738 0,-3.5711 -2.8998,-6.4709 -6.4734,-6.4709 z m 17.4685,52.6379 c -12.6335,13.0868 21.5438,30.3285 13.2281,37.5758 -8.3131,7.2479 -20.2864,-24.7357 -37.1026,-21.17 -16.822,3.5689 -5.0931,49.1454 -19.5546,49.1434 -14.4615,-0.003 9.0389,-48.3531 -15.8842,-51.2829 -24.9256,-2.9339 -29.3133,48.1563 -42.4224,41.9346 -13.106,-6.2212 26.791,-49.6301 8.1943,-63.8507 -18.5935,-14.2172 -42.8306,22.873 -48.2901,10.1355 -5.4587,-12.7352 36.9694,-24.3391 31.2239,-45.7781 -5.7422,-21.437 -42.5982,3.8914 -42.6064,-9.4192 -0.006,-13.3075 44.3041,-7.5869 44.3041,-26.9014 0,-19.3113 -39.7837,-15.4902 -37.7173,-25.2056 2.0687,-9.7195 35.413,5.0669 60.8689,-18.2461 -25.9032,-1.3566 -24.8998,-16.8928 -25.9435,-19.6787 -1.1531,-3.0755 21.5303,-13.458 23.8377,-34.2204 1.72,-15.4817 12.5594,0.5159 18.0159,12.0036 0.4756,1.0069 1.5329,1.5452 2.624,1.3411 1.0944,-0.2013 1.885,-1.0826 1.9701,-2.1909 0.7511,-9.7308 -0.8646,-19.3394 -5.2096,-27.5956 -8.0756,-15.3343 -39.2198,-50.7072 -27.684,-88.7709 6.145,-20.2861 21.9788,-30.4389 38.9597,-32.6551 30.0019,-3.9121 63.595,16.9523 53.7086,50.4802 -4.1749,14.1517 -17.6698,22.5482 -29.6734,21.4033 -22.9586,-2.1943 -26.7791,-37.3291 -8.846,-31.6686 7.3043,2.3062 0.1896,12.1759 10.3799,15.7646 8.8347,3.109 16.7624,-9.3116 14.1522,-21.1848 -4.8756,-22.1879 -44.9767,-28.3697 -54.8433,-0.6035 -7.1257,20.0588 3.0782,42.2949 29.9909,63.4422 24.3646,19.1438 50.2197,39.2176 54.4209,64.8797 6.2694,38.3442 -35.0901,65.1892 -58.9672,87.8783 1.9526,-1.9695 8.4269,-5.7056 29.9226,-9.3456 8.2457,-1.3938 22.0152,-20.3899 25.4307,-25.1492 0.9666,-1.3516 0.6012,-1.1654 2.4829,-0.5383 6.2387,2.0865 26.8081,10.5321 26.4906,14.345 -0.0907,1.0907 -0.9295,1.9666 -2.0126,2.1055 -13.7126,1.675 -22.1,16.0492 -25.1297,28.2257 -2.4007,9.6478 -3.246,22.584 -1.0831,39.9172 4.2599,-0.6273 25.2317,5.878 20.5894,13.2222 -4.6431,7.3438 -16.0829,-10.51 -27.8254,1.6577"
    />
  </g>
</svg>
