<?xml version="1.0" encoding="UTF-8" standalone="no"?>
<svg
   xmlns:dc="http://purl.org/dc/elements/1.1/"
   xmlns:cc="http://creativecommons.org/ns#"
   xmlns:rdf="http://www.w3.org/1999/02/22-rdf-syntax-ns#"
   xmlns:svg="http://www.w3.org/2000/svg"
   xmlns="http://www.w3.org/2000/svg"
   viewBox="0 0 793.3335 1121.3333"
   height="1121.3333"
   width="793.3335"
   xml:space="preserve"
   id="svg2"
   version="1.1"><metadata
     id="metadata8"><rdf:RDF><cc:Work
         rdf:about=""><dc:format>image/svg+xml</dc:format><dc:type
           rdf:resource="http://purl.org/dc/dcmitype/StillImage" /></cc:Work></rdf:RDF></metadata><defs
     id="defs6"><clipPath
       id="clipPath20"
       clipPathUnits="userSpaceOnUse"><path
         style="clip-rule:evenodd"
         id="path18"
         d="m 497.5112,164.3281 h 17.4382 v 25.5821 c 1.0539,0 2.2995,0.1916 3.5453,0.3835 l 14.6591,-25.9656 h 18.9711 v 2.6833 l -18.013,29.5103 c 13.318,8.5269 12.8389,21.1748 12.8389,34.8755 h -17.532 c 0,-12.0722 0.8606,-24.4321 -14.4694,-25.2961 v 25.2961 h -17.4382 v -25.2961 c -15.33,0.864 -14.4677,13.2239 -14.4677,25.2961 h -17.5337 c 0,-13.7007 -0.4791,-26.3486 12.8403,-34.8755 l -18.0144,-29.5103 v -2.6833 h 18.9711 l 14.6611,25.9656 c 1.2455,-0.1919 2.4894,-0.3835 3.5433,-0.3835 z m -78.7107,35.1624 c -9.2923,0 -9.7733,16.4814 0,16.5772 4.0238,0.0959 8.2397,0 12.2641,0 0,-5.4615 0,-11.2121 0,-16.5772 z m -27.3067,-32.6708 v -2.4916 h 19.1625 l 11.4976,19.7365 h 8.9107 v -19.7365 c 5.7489,0 11.5934,0 17.1504,0 0,22.3245 0,44.6493 0,67.0691 -9.6769,0 -19.6398,0 -29.4145,0 -26.3486,-0.0949 -31.1397,-31.8098 -14.1806,-43.3068 z m -41.823,36.792 17.2466,-39.2836 h 16.7675 v 2.4916 l -30.2772,65.4387 H 346.03 l -30.1813,-65.4387 v -2.4916 h 16.7692 z m -45.176,27.7855 c -44.0742,0 -50.0145,0 -55.7634,0 v -67.0691 c 5.7489,0 11.6892,0 17.5337,0 v 51.2603 h 20.6957 v -51.2603 c 5.8445,0 11.6892,0 17.534,0 z m -95.574,-34.4925 h -12.2641 c 0,5.4615 0,13.7015 0,19.163 3.9282,0 8.2397,0.0959 12.2641,0 9.9646,-0.0958 9.3897,-19.163 0,-19.163 z m -12.2641,-32.5766 v 17.1507 h 12.3599 c 32.0972,0 32.0972,49.8235 0,49.9184 -9.8689,0 -19.8335,0 -29.5104,0 0,-22.4198 0,-44.7446 0,-67.0691 5.6529,0 11.4015,0 17.1505,0 z m -83.8854,33.4372 c 0,24.1466 33.6308,24.1466 33.6308,0 0,-24.3346 -33.6308,-24.3346 -33.6308,0 z m 51.1648,0 c 0,46.3759 -68.7943,46.3759 -68.7943,0 0,-46.4681 68.7943,-46.4681 68.7943,0 z M 60.3136,216.0677 h 24.3363 c 0,5.7487 0,9.6772 0,15.3295 -13.7007,0 -28.0729,0 -41.7748,0 v -67.0691 c 5.8448,0 11.6901,0 17.4385,0 z" /></clipPath><linearGradient
       id="linearGradient32"
       spreadMethod="pad"
       gradientUnits="userSpaceOnUse"
       y2="276.14001"
       x2="961.04999"
       y1="35.970001"
       x1="-313.26999"><stop
         id="stop22"
         offset="0"
         style="stop-opacity:1;stop-color:#61c9b2" /><stop
         id="stop24"
         offset="0.25"
         style="stop-opacity:1;stop-color:#3d69bb" /><stop
         id="stop26"
         offset="0.53"
         style="stop-opacity:1;stop-color:#41bdc7" /><stop
         id="stop28"
         offset="0.77"
         style="stop-opacity:1;stop-color:#3d70c0" /><stop
         id="stop30"
         offset="1"
         style="stop-opacity:1;stop-color:#3eaec9" /></linearGradient><clipPath
       id="clipPath44"
       clipPathUnits="userSpaceOnUse"><path
         style="clip-rule:evenodd"
         id="path42"
         d="m 338.9063,559.8978 c -3.5748,0 -6.4744,2.8998 -6.4744,6.4709 0,3.5773 2.8996,6.4738 6.4744,6.4738 3.5736,0 6.4734,-2.8965 6.4734,-6.4738 0,-3.5711 -2.8998,-6.4709 -6.4734,-6.4709 z m 17.4685,52.6379 c -12.6335,13.0868 21.5438,30.3285 13.2281,37.5758 -8.3131,7.2479 -20.2864,-24.7357 -37.1026,-21.17 -16.822,3.5689 -5.0931,49.1454 -19.5546,49.1434 -14.4615,-0.003 9.0389,-48.3531 -15.8842,-51.2829 -24.9256,-2.9339 -29.3133,48.1563 -42.4224,41.9346 -13.106,-6.2212 26.791,-49.6301 8.1943,-63.8507 -18.5935,-14.2172 -42.8306,22.873 -48.2901,10.1355 -5.4587,-12.7352 36.9694,-24.3391 31.2239,-45.7781 -5.7422,-21.437 -42.5982,3.8914 -42.6064,-9.4192 -0.006,-13.3075 44.3041,-7.5869 44.3041,-26.9014 0,-19.3113 -39.7837,-15.4902 -37.7173,-25.2056 2.0687,-9.7195 35.413,5.0669 60.8689,-18.2461 -25.9032,-1.3566 -24.8998,-16.8928 -25.9435,-19.6787 -1.1531,-3.0755 21.5303,-13.458 23.8377,-34.2204 1.72,-15.4817 12.5594,0.5159 18.0159,12.0036 0.4756,1.0069 1.5329,1.5452 2.624,1.3411 1.0944,-0.2013 1.885,-1.0826 1.9701,-2.1909 0.7511,-9.7308 -0.8646,-19.3394 -5.2096,-27.5956 -8.0756,-15.3343 -39.2198,-50.7072 -27.684,-88.7709 6.145,-20.2861 21.9788,-30.4389 38.9597,-32.6551 30.0019,-3.9121 63.595,16.9523 53.7086,50.4802 -4.1749,14.1517 -17.6698,22.5482 -29.6734,21.4033 -22.9586,-2.1943 -26.7791,-37.3291 -8.846,-31.6686 7.3043,2.3062 0.1896,12.1759 10.3799,15.7646 8.8347,3.109 16.7624,-9.3116 14.1522,-21.1848 -4.8756,-22.1879 -44.9767,-28.3697 -54.8433,-0.6035 -7.1257,20.0588 3.0782,42.2949 29.9909,63.4422 24.3646,19.1438 50.2197,39.2176 54.4209,64.8797 6.2694,38.3442 -35.0901,65.1892 -58.9672,87.8783 1.9526,-1.9695 8.4269,-5.7056 29.9226,-9.3456 8.2457,-1.3938 22.0152,-20.3899 25.4307,-25.1492 0.9666,-1.3516 0.6012,-1.1654 2.4829,-0.5383 6.2387,2.0865 26.8081,10.5321 26.4906,14.345 -0.0907,1.0907 -0.9295,1.9666 -2.0126,2.1055 -13.7126,1.675 -22.1,16.0492 -25.1297,28.2257 -2.4007,9.6478 -3.246,22.584 -1.0831,39.9172 4.2599,-0.6273 25.2317,5.878 20.5894,13.2222 -4.6431,7.3438 -16.0829,-10.51 -27.8254,1.6577 z" /></clipPath><linearGradient
       id="linearGradient56"
       spreadMethod="pad"
       gradientUnits="userSpaceOnUse"
       y2="405.01999"
       x2="1446.3199"
       y1="-324.01999"
       x1="-761.66998"><stop
         id="stop46"
         offset="0"
         style="stop-opacity:1;stop-color:#61c9b2" /><stop
         id="stop48"
         offset="0.25"
         style="stop-opacity:1;stop-color:#3d69bb" /><stop
         id="stop50"
         offset="0.53"
         style="stop-opacity:1;stop-color:#41bdc7" /><stop
         id="stop52"
         offset="0.77"
         style="stop-opacity:1;stop-color:#3d70c0" /><stop
         id="stop54"
         offset="1"
         style="stop-opacity:1;stop-color:#3eaec9" /></linearGradient></defs><g
     transform="matrix(1.3333333,0,0,-1.3333333,0,1121.3333)"
     id="g10"><g
       id="g12"><g
         id="g14"><g
           clip-path="url(#clipPath20)"
           id="g16"><path
             id="path34"
             style="fill:url(#linearGradient32);fill-rule:evenodd;stroke:none"
             d="m 497.5112,164.3281 h 17.4382 v 25.5821 c 1.0539,0 2.2995,0.1916 3.5453,0.3835 l 14.6591,-25.9656 h 18.9711 v 2.6833 l -18.013,29.5103 c 13.318,8.5269 12.8389,21.1748 12.8389,34.8755 h -17.532 c 0,-12.0722 0.8606,-24.4321 -14.4694,-25.2961 v 25.2961 h -17.4382 v -25.2961 c -15.33,0.864 -14.4677,13.2239 -14.4677,25.2961 h -17.5337 c 0,-13.7007 -0.4791,-26.3486 12.8403,-34.8755 l -18.0144,-29.5103 v -2.6833 h 18.9711 l 14.6611,25.9656 c 1.2455,-0.1919 2.4894,-0.3835 3.5433,-0.3835 z m -78.7107,35.1624 c -9.2923,0 -9.7733,16.4814 0,16.5772 4.0238,0.0959 8.2397,0 12.2641,0 0,-5.4615 0,-11.2121 0,-16.5772 z m -27.3067,-32.6708 v -2.4916 h 19.1625 l 11.4976,19.7365 h 8.9107 v -19.7365 c 5.7489,0 11.5934,0 17.1504,0 0,22.3245 0,44.6493 0,67.0691 -9.6769,0 -19.6398,0 -29.4145,0 -26.3486,-0.0949 -31.1397,-31.8098 -14.1806,-43.3068 z m -41.823,36.792 17.2466,-39.2836 h 16.7675 v 2.4916 l -30.2772,65.4387 H 346.03 l -30.1813,-65.4387 v -2.4916 h 16.7692 z m -45.176,27.7855 c -44.0742,0 -50.0145,0 -55.7634,0 v -67.0691 c 5.7489,0 11.6892,0 17.5337,0 v 51.2603 h 20.6957 v -51.2603 c 5.8445,0 11.6892,0 17.534,0 z m -95.574,-34.4925 h -12.2641 c 0,5.4615 0,13.7015 0,19.163 3.9282,0 8.2397,0.0959 12.2641,0 9.9646,-0.0958 9.3897,-19.163 0,-19.163 z m -12.2641,-32.5766 v 17.1507 h 12.3599 c 32.0972,0 32.0972,49.8235 0,49.9184 -9.8689,0 -19.8335,0 -29.5104,0 0,-22.4198 0,-44.7446 0,-67.0691 5.6529,0 11.4015,0 17.1505,0 z m -83.8854,33.4372 c 0,24.1466 33.6308,24.1466 33.6308,0 0,-24.3346 -33.6308,-24.3346 -33.6308,0 z m 51.1648,0 c 0,46.3759 -68.7943,46.3759 -68.7943,0 0,-46.4681 68.7943,-46.4681 68.7943,0 z M 60.3136,216.0677 h 24.3363 c 0,5.7487 0,9.6772 0,15.3295 -13.7007,0 -28.0729,0 -41.7748,0 v -67.0691 c 5.8448,0 11.6901,0 17.4385,0 z" /></g></g><path
         id="path36"
         style="fill:#17324d;fill-opacity:1;fill-rule:nonzero;stroke:none"
         d="m 497.5112,164.3281 h 17.4382 v 25.5821 c 1.0539,0 2.2995,0.1916 3.5453,0.3835 l 14.6591,-25.9656 h 18.9711 v 2.6833 l -18.013,29.5103 c 13.318,8.5269 12.8389,21.1748 12.8389,34.8755 h -17.532 c 0,-12.0722 0.8606,-24.4321 -14.4694,-25.2961 v 25.2961 h -17.4382 v -25.2961 c -15.33,0.864 -14.4677,13.2239 -14.4677,25.2961 h -17.5337 c 0,-13.7007 -0.4791,-26.3486 12.8403,-34.8755 l -18.0144,-29.5103 v -2.6833 h 18.9711 l 14.6611,25.9656 c 1.2455,-0.1919 2.4894,-0.3835 3.5433,-0.3835 z m -78.7107,35.1624 c -9.2923,0 -9.7733,16.4814 0,16.5772 4.0238,0.0959 8.2397,0 12.2641,0 0,-5.4615 0,-11.2121 0,-16.5772 z m -27.3067,-32.6708 v -2.4916 h 19.1625 l 11.4976,19.7365 h 8.9107 v -19.7365 c 5.7489,0 11.5934,0 17.1504,0 0,22.3245 0,44.6493 0,67.0691 -9.6769,0 -19.6398,0 -29.4145,0 -26.3486,-0.0949 -31.1397,-31.8098 -14.1806,-43.3068 z m -41.823,36.792 17.2466,-39.2836 h 16.7675 v 2.4916 l -30.2772,65.4387 H 346.03 l -30.1813,-65.4387 v -2.4916 h 16.7692 z m -45.176,27.7855 c -44.0742,0 -50.0145,0 -55.7634,0 v -67.0691 c 5.7489,0 11.6892,0 17.5337,0 v 51.2603 h 20.6957 v -51.2603 c 5.8445,0 11.6892,0 17.534,0 z m -95.574,-34.4925 h -12.2641 c 0,5.4615 0,13.7015 0,19.163 3.9282,0 8.2397,0.0959 12.2641,0 9.9646,-0.0958 9.3897,-19.163 0,-19.163 z m -12.2641,-32.5766 v 17.1507 h 12.3599 c 32.0972,0 32.0972,49.8235 0,49.9184 -9.8689,0 -19.8335,0 -29.5104,0 0,-22.4198 0,-44.7446 0,-67.0691 5.6529,0 11.4015,0 17.1505,0 z m -83.8854,33.4372 c 0,24.1466 33.6308,24.1466 33.6308,0 0,-24.3346 -33.6308,-24.3346 -33.6308,0 z m 51.1648,0 c 0,46.3759 -68.7943,46.3759 -68.7943,0 0,-46.4681 68.7943,-46.4681 68.7943,0 z M 60.3136,216.0677 h 24.3363 c 0,5.7487 0,9.6772 0,15.3295 -13.7007,0 -28.0729,0 -41.7748,0 v -67.0691 c 5.8448,0 11.6901,0 17.4385,0 z" /><g
         id="g38"><g
           clip-path="url(#clipPath44)"
           id="g40"><path
             id="path58"
             style="fill:url(#linearGradient56);fill-rule:evenodd;stroke:none"
             d="m 338.9063,559.8978 c -3.5748,0 -6.4744,2.8998 -6.4744,6.4709 0,3.5773 2.8996,6.4738 6.4744,6.4738 3.5736,0 6.4734,-2.8965 6.4734,-6.4738 0,-3.5711 -2.8998,-6.4709 -6.4734,-6.4709 z m 17.4685,52.6379 c -12.6335,13.0868 21.5438,30.3285 13.2281,37.5758 -8.3131,7.2479 -20.2864,-24.7357 -37.1026,-21.17 -16.822,3.5689 -5.0931,49.1454 -19.5546,49.1434 -14.4615,-0.003 9.0389,-48.3531 -15.8842,-51.2829 -24.9256,-2.9339 -29.3133,48.1563 -42.4224,41.9346 -13.106,-6.2212 26.791,-49.6301 8.1943,-63.8507 -18.5935,-14.2172 -42.8306,22.873 -48.2901,10.1355 -5.4587,-12.7352 36.9694,-24.3391 31.2239,-45.7781 -5.7422,-21.437 -42.5982,3.8914 -42.6064,-9.4192 -0.006,-13.3075 44.3041,-7.5869 44.3041,-26.9014 0,-19.3113 -39.7837,-15.4902 -37.7173,-25.2056 2.0687,-9.7195 35.413,5.0669 60.8689,-18.2461 -25.9032,-1.3566 -24.8998,-16.8928 -25.9435,-19.6787 -1.1531,-3.0755 21.5303,-13.458 23.8377,-34.2204 1.72,-15.4817 12.5594,0.5159 18.0159,12.0036 0.4756,1.0069 1.5329,1.5452 2.624,1.3411 1.0944,-0.2013 1.885,-1.0826 1.9701,-2.1909 0.7511,-9.7308 -0.8646,-19.3394 -5.2096,-27.5956 -8.0756,-15.3343 -39.2198,-50.7072 -27.684,-88.7709 6.145,-20.2861 21.9788,-30.4389 38.9597,-32.6551 30.0019,-3.9121 63.595,16.9523 53.7086,50.4802 -4.1749,14.1517 -17.6698,22.5482 -29.6734,21.4033 -22.9586,-2.1943 -26.7791,-37.3291 -8.846,-31.6686 7.3043,2.3062 0.1896,12.1759 10.3799,15.7646 8.8347,3.109 16.7624,-9.3116 14.1522,-21.1848 -4.8756,-22.1879 -44.9767,-28.3697 -54.8433,-0.6035 -7.1257,20.0588 3.0782,42.2949 29.9909,63.4422 24.3646,19.1438 50.2197,39.2176 54.4209,64.8797 6.2694,38.3442 -35.0901,65.1892 -58.9672,87.8783 1.9526,-1.9695 8.4269,-5.7056 29.9226,-9.3456 8.2457,-1.3938 22.0152,-20.3899 25.4307,-25.1492 0.9666,-1.3516 0.6012,-1.1654 2.4829,-0.5383 6.2387,2.0865 26.8081,10.5321 26.4906,14.345 -0.0907,1.0907 -0.9295,1.9666 -2.0126,2.1055 -13.7126,1.675 -22.1,16.0492 -25.1297,28.2257 -2.4007,9.6478 -3.246,22.584 -1.0831,39.9172 4.2599,-0.6273 25.2317,5.878 20.5894,13.2222 -4.6431,7.3438 -16.0829,-10.51 -27.8254,1.6577 z" /></g></g><path
         id="path60"
         style="fill:#17324d;fill-opacity:1;fill-rule:nonzero;stroke:none"
         d="m 338.9063,559.8978 c -3.5748,0 -6.4744,2.8998 -6.4744,6.4709 0,3.5773 2.8996,6.4738 6.4744,6.4738 3.5736,0 6.4734,-2.8965 6.4734,-6.4738 0,-3.5711 -2.8998,-6.4709 -6.4734,-6.4709 z m 17.4685,52.6379 c -12.6335,13.0868 21.5438,30.3285 13.2281,37.5758 -8.3131,7.2479 -20.2864,-24.7357 -37.1026,-21.17 -16.822,3.5689 -5.0931,49.1454 -19.5546,49.1434 -14.4615,-0.003 9.0389,-48.3531 -15.8842,-51.2829 -24.9256,-2.9339 -29.3133,48.1563 -42.4224,41.9346 -13.106,-6.2212 26.791,-49.6301 8.1943,-63.8507 -18.5935,-14.2172 -42.8306,22.873 -48.2901,10.1355 -5.4587,-12.7352 36.9694,-24.3391 31.2239,-45.7781 -5.7422,-21.437 -42.5982,3.8914 -42.6064,-9.4192 -0.006,-13.3075 44.3041,-7.5869 44.3041,-26.9014 0,-19.3113 -39.7837,-15.4902 -37.7173,-25.2056 2.0687,-9.7195 35.413,5.0669 60.8689,-18.2461 -25.9032,-1.3566 -24.8998,-16.8928 -25.9435,-19.6787 -1.1531,-3.0755 21.5303,-13.458 23.8377,-34.2204 1.72,-15.4817 12.5594,0.5159 18.0159,12.0036 0.4756,1.0069 1.5329,1.5452 2.624,1.3411 1.0944,-0.2013 1.885,-1.0826 1.9701,-2.1909 0.7511,-9.7308 -0.8646,-19.3394 -5.2096,-27.5956 -8.0756,-15.3343 -39.2198,-50.7072 -27.684,-88.7709 6.145,-20.2861 21.9788,-30.4389 38.9597,-32.6551 30.0019,-3.9121 63.595,16.9523 53.7086,50.4802 -4.1749,14.1517 -17.6698,22.5482 -29.6734,21.4033 -22.9586,-2.1943 -26.7791,-37.3291 -8.846,-31.6686 7.3043,2.3062 0.1896,12.1759 10.3799,15.7646 8.8347,3.109 16.7624,-9.3116 14.1522,-21.1848 -4.8756,-22.1879 -44.9767,-28.3697 -54.8433,-0.6035 -7.1257,20.0588 3.0782,42.2949 29.9909,63.4422 24.3646,19.1438 50.2197,39.2176 54.4209,64.8797 6.2694,38.3442 -35.0901,65.1892 -58.9672,87.8783 1.9526,-1.9695 8.4269,-5.7056 29.9226,-9.3456 8.2457,-1.3938 22.0152,-20.3899 25.4307,-25.1492 0.9666,-1.3516 0.6012,-1.1654 2.4829,-0.5383 6.2387,2.0865 26.8081,10.5321 26.4906,14.345 -0.0907,1.0907 -0.9295,1.9666 -2.0126,2.1055 -13.7126,1.675 -22.1,16.0492 -25.1297,28.2257 -2.4007,9.6478 -3.246,22.584 -1.0831,39.9172 4.2599,-0.6273 25.2317,5.878 20.5894,13.2222 -4.6431,7.3438 -16.0829,-10.51 -27.8254,1.6577" /></g></g></svg>